<mxfile host="app.diagrams.net" modified="2023-01-27T10:12:51.567Z" agent="5.0 (Windows NT 10.0; Win64; x64) AppleWebKit/537.36 (KHTML, like Gecko) Chrome/108.0.0.0 Safari/537.36" etag="X-B421ILCY5zypvXGMnj" version="20.8.9" type="github" pages="2">
  <diagram id="weZr_IRmZVDHQjZT3fmE" name="Страница 1">
    <mxGraphModel dx="662" dy="318" grid="1" gridSize="10" guides="1" tooltips="1" connect="1" arrows="1" fold="1" page="1" pageScale="1" pageWidth="827" pageHeight="1169" math="0" shadow="0">
      <root>
        <mxCell id="0" />
        <mxCell id="1" parent="0" />
        <mxCell id="PmpITGEGqrALNooB3avP-1" value="JVM" style="rounded=1;whiteSpace=wrap;html=1;fillColor=#76608a;fontColor=#ffffff;strokeColor=#432D57;" vertex="1" parent="1">
          <mxGeometry x="80" y="80" width="120" height="60" as="geometry" />
        </mxCell>
        <mxCell id="PmpITGEGqrALNooB3avP-2" value="System ClassLoader" style="rounded=1;whiteSpace=wrap;html=1;fillColor=#cdeb8b;strokeColor=#36393d;" vertex="1" parent="1">
          <mxGeometry x="280" y="80" width="120" height="60" as="geometry" />
        </mxCell>
        <mxCell id="PmpITGEGqrALNooB3avP-3" value="Extension ClassLoader" style="rounded=1;whiteSpace=wrap;html=1;fillColor=#dae8fc;strokeColor=#6c8ebf;gradientColor=#7ea6e0;" vertex="1" parent="1">
          <mxGeometry x="280" y="220" width="120" height="60" as="geometry" />
        </mxCell>
        <mxCell id="PmpITGEGqrALNooB3avP-4" value="Bootstrap" style="rounded=1;whiteSpace=wrap;html=1;fillColor=#e3c800;strokeColor=#B09500;fontColor=#000000;" vertex="1" parent="1">
          <mxGeometry x="280" y="360" width="120" height="60" as="geometry" />
        </mxCell>
        <mxCell id="PmpITGEGqrALNooB3avP-5" value="" style="endArrow=classic;html=1;rounded=0;exitX=1;exitY=0.5;exitDx=0;exitDy=0;entryX=0;entryY=0.5;entryDx=0;entryDy=0;" edge="1" parent="1" source="PmpITGEGqrALNooB3avP-1" target="PmpITGEGqrALNooB3avP-2">
          <mxGeometry width="50" height="50" relative="1" as="geometry">
            <mxPoint x="380" y="250" as="sourcePoint" />
            <mxPoint x="280" y="95" as="targetPoint" />
          </mxGeometry>
        </mxCell>
        <mxCell id="PmpITGEGqrALNooB3avP-6" value="" style="rhombus;whiteSpace=wrap;html=1;" vertex="1" parent="1">
          <mxGeometry x="320" y="160" width="40" height="40" as="geometry" />
        </mxCell>
        <mxCell id="PmpITGEGqrALNooB3avP-7" value="" style="rhombus;whiteSpace=wrap;html=1;" vertex="1" parent="1">
          <mxGeometry x="320" y="300" width="40" height="40" as="geometry" />
        </mxCell>
        <mxCell id="PmpITGEGqrALNooB3avP-8" value="" style="endArrow=classic;html=1;rounded=0;exitX=0.5;exitY=1;exitDx=0;exitDy=0;" edge="1" parent="1" source="PmpITGEGqrALNooB3avP-2" target="PmpITGEGqrALNooB3avP-6">
          <mxGeometry width="50" height="50" relative="1" as="geometry">
            <mxPoint x="380" y="250" as="sourcePoint" />
            <mxPoint x="430" y="200" as="targetPoint" />
          </mxGeometry>
        </mxCell>
        <mxCell id="PmpITGEGqrALNooB3avP-10" value="" style="endArrow=classic;html=1;rounded=0;exitX=0.5;exitY=1;exitDx=0;exitDy=0;entryX=0.5;entryY=0;entryDx=0;entryDy=0;" edge="1" parent="1" source="PmpITGEGqrALNooB3avP-6" target="PmpITGEGqrALNooB3avP-3">
          <mxGeometry width="50" height="50" relative="1" as="geometry">
            <mxPoint x="380" y="250" as="sourcePoint" />
            <mxPoint x="430" y="200" as="targetPoint" />
          </mxGeometry>
        </mxCell>
        <mxCell id="PmpITGEGqrALNooB3avP-11" value="" style="endArrow=classic;html=1;rounded=0;exitX=0;exitY=0.5;exitDx=0;exitDy=0;entryX=0.917;entryY=1;entryDx=0;entryDy=0;entryPerimeter=0;" edge="1" parent="1" source="PmpITGEGqrALNooB3avP-6" target="PmpITGEGqrALNooB3avP-1">
          <mxGeometry width="50" height="50" relative="1" as="geometry">
            <mxPoint x="380" y="250" as="sourcePoint" />
            <mxPoint x="190" y="150" as="targetPoint" />
            <Array as="points">
              <mxPoint x="190" y="180" />
            </Array>
          </mxGeometry>
        </mxCell>
        <mxCell id="PmpITGEGqrALNooB3avP-12" value="" style="endArrow=classic;html=1;rounded=0;exitX=0.5;exitY=1;exitDx=0;exitDy=0;" edge="1" parent="1" source="PmpITGEGqrALNooB3avP-3" target="PmpITGEGqrALNooB3avP-7">
          <mxGeometry width="50" height="50" relative="1" as="geometry">
            <mxPoint x="380" y="250" as="sourcePoint" />
            <mxPoint x="430" y="200" as="targetPoint" />
          </mxGeometry>
        </mxCell>
        <mxCell id="PmpITGEGqrALNooB3avP-13" value="" style="endArrow=classic;html=1;rounded=0;exitX=0;exitY=0.5;exitDx=0;exitDy=0;entryX=0.5;entryY=1;entryDx=0;entryDy=0;" edge="1" parent="1" source="PmpITGEGqrALNooB3avP-7" target="PmpITGEGqrALNooB3avP-1">
          <mxGeometry width="50" height="50" relative="1" as="geometry">
            <mxPoint x="280" y="360" as="sourcePoint" />
            <mxPoint x="330" y="310" as="targetPoint" />
            <Array as="points">
              <mxPoint x="140" y="320" />
            </Array>
          </mxGeometry>
        </mxCell>
        <mxCell id="PmpITGEGqrALNooB3avP-14" value="" style="endArrow=classic;html=1;rounded=0;exitX=0.5;exitY=1;exitDx=0;exitDy=0;entryX=0.5;entryY=0;entryDx=0;entryDy=0;" edge="1" parent="1" source="PmpITGEGqrALNooB3avP-7" target="PmpITGEGqrALNooB3avP-4">
          <mxGeometry width="50" height="50" relative="1" as="geometry">
            <mxPoint x="270" y="310" as="sourcePoint" />
            <mxPoint x="320" y="260" as="targetPoint" />
          </mxGeometry>
        </mxCell>
        <mxCell id="PmpITGEGqrALNooB3avP-16" value="" style="rhombus;whiteSpace=wrap;html=1;" vertex="1" parent="1">
          <mxGeometry x="190" y="370" width="40" height="40" as="geometry" />
        </mxCell>
        <mxCell id="PmpITGEGqrALNooB3avP-17" value="ClassNotFoundExeption&lt;br&gt;" style="rounded=0;whiteSpace=wrap;html=1;fillColor=#e51400;fontColor=#ffffff;strokeColor=#B20000;" vertex="1" parent="1">
          <mxGeometry x="140" y="440" width="135" height="30" as="geometry" />
        </mxCell>
        <mxCell id="PmpITGEGqrALNooB3avP-19" value="" style="endArrow=classic;html=1;rounded=0;exitX=0;exitY=0.5;exitDx=0;exitDy=0;entryX=1;entryY=0.5;entryDx=0;entryDy=0;" edge="1" parent="1" source="PmpITGEGqrALNooB3avP-4" target="PmpITGEGqrALNooB3avP-16">
          <mxGeometry width="50" height="50" relative="1" as="geometry">
            <mxPoint x="270" y="310" as="sourcePoint" />
            <mxPoint x="320" y="260" as="targetPoint" />
          </mxGeometry>
        </mxCell>
        <mxCell id="PmpITGEGqrALNooB3avP-20" value="" style="endArrow=classic;html=1;rounded=0;exitX=0;exitY=0.5;exitDx=0;exitDy=0;entryX=0.08;entryY=1.005;entryDx=0;entryDy=0;entryPerimeter=0;" edge="1" parent="1" source="PmpITGEGqrALNooB3avP-16" target="PmpITGEGqrALNooB3avP-1">
          <mxGeometry width="50" height="50" relative="1" as="geometry">
            <mxPoint x="270" y="310" as="sourcePoint" />
            <mxPoint x="320" y="260" as="targetPoint" />
            <Array as="points">
              <mxPoint x="90" y="390" />
            </Array>
          </mxGeometry>
        </mxCell>
        <mxCell id="PmpITGEGqrALNooB3avP-21" value="" style="endArrow=classic;html=1;rounded=0;exitX=0.5;exitY=1;exitDx=0;exitDy=0;" edge="1" parent="1" source="PmpITGEGqrALNooB3avP-16">
          <mxGeometry width="50" height="50" relative="1" as="geometry">
            <mxPoint x="270" y="300" as="sourcePoint" />
            <mxPoint x="210" y="440" as="targetPoint" />
          </mxGeometry>
        </mxCell>
        <mxCell id="PmpITGEGqrALNooB3avP-23" value="classpath" style="text;html=1;align=center;verticalAlign=middle;resizable=0;points=[];autosize=1;strokeColor=none;fillColor=none;fontStyle=1" vertex="1" parent="1">
          <mxGeometry x="200" y="80" width="80" height="30" as="geometry" />
        </mxCell>
        <mxCell id="PmpITGEGqrALNooB3avP-24" value="classpath" style="text;html=1;align=center;verticalAlign=middle;resizable=0;points=[];autosize=1;strokeColor=none;fillColor=none;fontStyle=1" vertex="1" parent="1">
          <mxGeometry x="200" y="80" width="80" height="30" as="geometry" />
        </mxCell>
        <mxCell id="PmpITGEGqrALNooB3avP-25" value="class definition" style="text;html=1;align=center;verticalAlign=middle;resizable=0;points=[];autosize=1;strokeColor=none;fillColor=none;fontStyle=1" vertex="1" parent="1">
          <mxGeometry x="185" y="150" width="110" height="30" as="geometry" />
        </mxCell>
        <mxCell id="PmpITGEGqrALNooB3avP-26" value="class definition" style="text;html=1;align=center;verticalAlign=middle;resizable=0;points=[];autosize=1;strokeColor=none;fillColor=none;fontStyle=1" vertex="1" parent="1">
          <mxGeometry x="135" y="290" width="110" height="30" as="geometry" />
        </mxCell>
        <mxCell id="PmpITGEGqrALNooB3avP-27" value="class definition" style="text;html=1;align=center;verticalAlign=middle;resizable=0;points=[];autosize=1;strokeColor=none;fillColor=none;fontStyle=1" vertex="1" parent="1">
          <mxGeometry x="85" y="360" width="110" height="30" as="geometry" />
        </mxCell>
      </root>
    </mxGraphModel>
  </diagram>
  <diagram id="-bxU2h7fvM2eZYEa_UAt" name="Страница 2">
    <mxGraphModel dx="934" dy="448" grid="1" gridSize="10" guides="1" tooltips="1" connect="1" arrows="1" fold="1" page="1" pageScale="1" pageWidth="827" pageHeight="1169" math="0" shadow="0">
      <root>
        <mxCell id="0" />
        <mxCell id="1" parent="0" />
        <mxCell id="MNtpfI66C7HI93_7Ny7_-1" value="Project&lt;br&gt;Version: 1.0.0" style="rounded=1;whiteSpace=wrap;html=1;fillColor=#647687;fontColor=#ffffff;strokeColor=#314354;" vertex="1" parent="1">
          <mxGeometry x="340" y="60" width="140" height="60" as="geometry" />
        </mxCell>
        <mxCell id="MNtpfI66C7HI93_7Ny7_-2" value="" style="rounded=1;whiteSpace=wrap;html=1;fillColor=#ffe6cc;strokeColor=#d79b00;" vertex="1" parent="1">
          <mxGeometry x="180" y="150" width="420" height="80" as="geometry" />
        </mxCell>
        <mxCell id="MNtpfI66C7HI93_7Ny7_-3" value="A&lt;br&gt;2.3.3" style="rounded=1;whiteSpace=wrap;html=1;fillColor=#dae8fc;strokeColor=#6c8ebf;" vertex="1" parent="1">
          <mxGeometry x="200" y="170" width="60" height="40" as="geometry" />
        </mxCell>
        <mxCell id="MNtpfI66C7HI93_7Ny7_-5" value="B&lt;br&gt;0.0.8" style="rounded=1;whiteSpace=wrap;html=1;fillColor=#f8cecc;strokeColor=#b85450;" vertex="1" parent="1">
          <mxGeometry x="280" y="170" width="60" height="40" as="geometry" />
        </mxCell>
        <mxCell id="MNtpfI66C7HI93_7Ny7_-6" value="C&lt;br&gt;1.4.3" style="rounded=1;whiteSpace=wrap;html=1;fillColor=#d5e8d4;strokeColor=#82b366;" vertex="1" parent="1">
          <mxGeometry x="360" y="170" width="60" height="40" as="geometry" />
        </mxCell>
        <mxCell id="MNtpfI66C7HI93_7Ny7_-7" value="D&lt;br&gt;1.0.1" style="rounded=1;whiteSpace=wrap;html=1;fillColor=#990099;strokeColor=#A50040;fontColor=#ffffff;" vertex="1" parent="1">
          <mxGeometry x="444" y="170" width="60" height="40" as="geometry" />
        </mxCell>
        <mxCell id="MNtpfI66C7HI93_7Ny7_-8" value="E&lt;br&gt;1.0.0" style="rounded=1;whiteSpace=wrap;html=1;fillColor=#1ba1e2;strokeColor=#006EAF;fontColor=#ffffff;" vertex="1" parent="1">
          <mxGeometry x="520" y="170" width="60" height="40" as="geometry" />
        </mxCell>
        <mxCell id="MNtpfI66C7HI93_7Ny7_-9" value="Direct&lt;br&gt;Dependencies" style="rounded=1;whiteSpace=wrap;html=1;fillColor=#647687;fontColor=#ffffff;strokeColor=#314354;" vertex="1" parent="1">
          <mxGeometry x="590" y="130" width="120" height="50" as="geometry" />
        </mxCell>
        <mxCell id="MNtpfI66C7HI93_7Ny7_-11" value="F&lt;br&gt;0.1.3" style="rounded=1;whiteSpace=wrap;html=1;fillColor=#e51400;fontColor=#ffffff;strokeColor=#B20000;" vertex="1" parent="1">
          <mxGeometry x="180" y="260" width="50" height="40" as="geometry" />
        </mxCell>
        <mxCell id="MNtpfI66C7HI93_7Ny7_-12" value="G&lt;br&gt;4.1.0" style="rounded=1;whiteSpace=wrap;html=1;fillColor=#f5f5f5;gradientColor=#b3b3b3;strokeColor=#666666;" vertex="1" parent="1">
          <mxGeometry x="240" y="260" width="50" height="40" as="geometry" />
        </mxCell>
        <mxCell id="MNtpfI66C7HI93_7Ny7_-13" value="F&lt;br&gt;1.0.0" style="rounded=1;whiteSpace=wrap;html=1;fillColor=#e51400;fontColor=#ffffff;strokeColor=#B20000;" vertex="1" parent="1">
          <mxGeometry x="340" y="260" width="50" height="40" as="geometry" />
        </mxCell>
        <mxCell id="MNtpfI66C7HI93_7Ny7_-14" value="H&lt;br&gt;0.9.9" style="rounded=1;whiteSpace=wrap;html=1;fillColor=#60a917;fontColor=#ffffff;strokeColor=#2D7600;" vertex="1" parent="1">
          <mxGeometry x="400" y="260" width="50" height="40" as="geometry" />
        </mxCell>
        <mxCell id="MNtpfI66C7HI93_7Ny7_-15" value="H&lt;br&gt;1.0.0" style="rounded=1;whiteSpace=wrap;html=1;fillColor=#60a917;strokeColor=#2D7600;fontColor=#ffffff;" vertex="1" parent="1">
          <mxGeometry x="490" y="260" width="50" height="40" as="geometry" />
        </mxCell>
        <mxCell id="MNtpfI66C7HI93_7Ny7_-16" value="I&lt;br&gt;2.0.0" style="rounded=1;whiteSpace=wrap;html=1;fillColor=#FF8000;fontColor=#000000;strokeColor=#C73500;" vertex="1" parent="1">
          <mxGeometry x="550" y="260" width="50" height="40" as="geometry" />
        </mxCell>
        <mxCell id="MNtpfI66C7HI93_7Ny7_-17" value="F&lt;br&gt;2.2.0" style="rounded=1;whiteSpace=wrap;html=1;fillColor=#e51400;fontColor=#ffffff;strokeColor=#B20000;" vertex="1" parent="1">
          <mxGeometry x="610" y="260" width="50" height="40" as="geometry" />
        </mxCell>
        <mxCell id="MNtpfI66C7HI93_7Ny7_-18" value="B&lt;br&gt;1.0.0" style="rounded=1;whiteSpace=wrap;html=1;fillColor=#f8cecc;strokeColor=#b85450;" vertex="1" parent="1">
          <mxGeometry x="450" y="330" width="60" height="40" as="geometry" />
        </mxCell>
        <mxCell id="MNtpfI66C7HI93_7Ny7_-19" value="J&lt;br&gt;1.2.3" style="rounded=1;whiteSpace=wrap;html=1;fillColor=#6a00ff;strokeColor=#3700CC;fontColor=#ffffff;" vertex="1" parent="1">
          <mxGeometry x="520" y="330" width="60" height="40" as="geometry" />
        </mxCell>
        <mxCell id="MNtpfI66C7HI93_7Ny7_-20" value="" style="endArrow=classic;html=1;rounded=0;entryX=0.5;entryY=0;entryDx=0;entryDy=0;" edge="1" parent="1" source="MNtpfI66C7HI93_7Ny7_-1" target="MNtpfI66C7HI93_7Ny7_-3">
          <mxGeometry width="50" height="50" relative="1" as="geometry">
            <mxPoint x="357" y="124" as="sourcePoint" />
            <mxPoint x="430" y="160" as="targetPoint" />
          </mxGeometry>
        </mxCell>
        <mxCell id="MNtpfI66C7HI93_7Ny7_-21" value="" style="endArrow=classic;html=1;rounded=0;entryX=0.5;entryY=0;entryDx=0;entryDy=0;" edge="1" parent="1" source="MNtpfI66C7HI93_7Ny7_-1" target="MNtpfI66C7HI93_7Ny7_-5">
          <mxGeometry width="50" height="50" relative="1" as="geometry">
            <mxPoint x="384" y="122" as="sourcePoint" />
            <mxPoint x="430" y="160" as="targetPoint" />
          </mxGeometry>
        </mxCell>
        <mxCell id="MNtpfI66C7HI93_7Ny7_-22" value="" style="endArrow=classic;html=1;rounded=0;exitX=0.426;exitY=1.002;exitDx=0;exitDy=0;exitPerimeter=0;" edge="1" parent="1" source="MNtpfI66C7HI93_7Ny7_-1" target="MNtpfI66C7HI93_7Ny7_-6">
          <mxGeometry width="50" height="50" relative="1" as="geometry">
            <mxPoint x="380" y="190" as="sourcePoint" />
            <mxPoint x="430" y="140" as="targetPoint" />
          </mxGeometry>
        </mxCell>
        <mxCell id="MNtpfI66C7HI93_7Ny7_-23" value="" style="endArrow=classic;html=1;rounded=0;exitX=0.674;exitY=1.03;exitDx=0;exitDy=0;exitPerimeter=0;entryX=0.457;entryY=0.025;entryDx=0;entryDy=0;entryPerimeter=0;" edge="1" parent="1" source="MNtpfI66C7HI93_7Ny7_-1" target="MNtpfI66C7HI93_7Ny7_-7">
          <mxGeometry width="50" height="50" relative="1" as="geometry">
            <mxPoint x="380" y="190" as="sourcePoint" />
            <mxPoint x="430" y="140" as="targetPoint" />
          </mxGeometry>
        </mxCell>
        <mxCell id="MNtpfI66C7HI93_7Ny7_-24" value="" style="endArrow=classic;html=1;rounded=0;entryX=0.5;entryY=0;entryDx=0;entryDy=0;" edge="1" parent="1" target="MNtpfI66C7HI93_7Ny7_-8">
          <mxGeometry width="50" height="50" relative="1" as="geometry">
            <mxPoint x="460" y="120" as="sourcePoint" />
            <mxPoint x="510" y="270" as="targetPoint" />
          </mxGeometry>
        </mxCell>
        <mxCell id="MNtpfI66C7HI93_7Ny7_-25" value="" style="endArrow=classic;html=1;rounded=0;exitX=0.25;exitY=1;exitDx=0;exitDy=0;entryX=0.5;entryY=0;entryDx=0;entryDy=0;" edge="1" parent="1" source="MNtpfI66C7HI93_7Ny7_-3" target="MNtpfI66C7HI93_7Ny7_-11">
          <mxGeometry width="50" height="50" relative="1" as="geometry">
            <mxPoint x="500" y="280" as="sourcePoint" />
            <mxPoint x="550" y="230" as="targetPoint" />
          </mxGeometry>
        </mxCell>
        <mxCell id="MNtpfI66C7HI93_7Ny7_-26" value="" style="endArrow=classic;html=1;rounded=0;exitX=0.75;exitY=1;exitDx=0;exitDy=0;entryX=0.5;entryY=0;entryDx=0;entryDy=0;" edge="1" parent="1" source="MNtpfI66C7HI93_7Ny7_-3" target="MNtpfI66C7HI93_7Ny7_-12">
          <mxGeometry width="50" height="50" relative="1" as="geometry">
            <mxPoint x="500" y="280" as="sourcePoint" />
            <mxPoint x="550" y="230" as="targetPoint" />
          </mxGeometry>
        </mxCell>
        <mxCell id="MNtpfI66C7HI93_7Ny7_-27" value="" style="endArrow=classic;html=1;rounded=0;exitX=0.25;exitY=1;exitDx=0;exitDy=0;entryX=0.5;entryY=0;entryDx=0;entryDy=0;" edge="1" parent="1" source="MNtpfI66C7HI93_7Ny7_-6" target="MNtpfI66C7HI93_7Ny7_-13">
          <mxGeometry width="50" height="50" relative="1" as="geometry">
            <mxPoint x="500" y="280" as="sourcePoint" />
            <mxPoint x="550" y="230" as="targetPoint" />
          </mxGeometry>
        </mxCell>
        <mxCell id="MNtpfI66C7HI93_7Ny7_-28" value="" style="endArrow=classic;html=1;rounded=0;exitX=0.75;exitY=1;exitDx=0;exitDy=0;entryX=0.5;entryY=0;entryDx=0;entryDy=0;" edge="1" parent="1" source="MNtpfI66C7HI93_7Ny7_-6" target="MNtpfI66C7HI93_7Ny7_-14">
          <mxGeometry width="50" height="50" relative="1" as="geometry">
            <mxPoint x="500" y="280" as="sourcePoint" />
            <mxPoint x="550" y="230" as="targetPoint" />
          </mxGeometry>
        </mxCell>
        <mxCell id="MNtpfI66C7HI93_7Ny7_-29" value="" style="endArrow=classic;html=1;rounded=0;exitX=0.25;exitY=1;exitDx=0;exitDy=0;entryX=0.5;entryY=0;entryDx=0;entryDy=0;" edge="1" parent="1" source="MNtpfI66C7HI93_7Ny7_-8" target="MNtpfI66C7HI93_7Ny7_-15">
          <mxGeometry width="50" height="50" relative="1" as="geometry">
            <mxPoint x="500" y="280" as="sourcePoint" />
            <mxPoint x="550" y="230" as="targetPoint" />
          </mxGeometry>
        </mxCell>
        <mxCell id="MNtpfI66C7HI93_7Ny7_-30" value="" style="endArrow=classic;html=1;rounded=0;exitX=0.5;exitY=1;exitDx=0;exitDy=0;entryX=0.5;entryY=0;entryDx=0;entryDy=0;" edge="1" parent="1" source="MNtpfI66C7HI93_7Ny7_-8" target="MNtpfI66C7HI93_7Ny7_-16">
          <mxGeometry width="50" height="50" relative="1" as="geometry">
            <mxPoint x="500" y="280" as="sourcePoint" />
            <mxPoint x="550" y="230" as="targetPoint" />
          </mxGeometry>
        </mxCell>
        <mxCell id="MNtpfI66C7HI93_7Ny7_-31" value="" style="endArrow=classic;html=1;rounded=0;exitX=0.75;exitY=1;exitDx=0;exitDy=0;entryX=0.25;entryY=0;entryDx=0;entryDy=0;" edge="1" parent="1" source="MNtpfI66C7HI93_7Ny7_-8" target="MNtpfI66C7HI93_7Ny7_-17">
          <mxGeometry width="50" height="50" relative="1" as="geometry">
            <mxPoint x="500" y="280" as="sourcePoint" />
            <mxPoint x="550" y="230" as="targetPoint" />
          </mxGeometry>
        </mxCell>
        <mxCell id="MNtpfI66C7HI93_7Ny7_-32" value="" style="endArrow=classic;html=1;rounded=0;exitX=0.109;exitY=1.025;exitDx=0;exitDy=0;entryX=0.5;entryY=0;entryDx=0;entryDy=0;exitPerimeter=0;" edge="1" parent="1" source="MNtpfI66C7HI93_7Ny7_-15" target="MNtpfI66C7HI93_7Ny7_-18">
          <mxGeometry width="50" height="50" relative="1" as="geometry">
            <mxPoint x="500" y="280" as="sourcePoint" />
            <mxPoint x="550" y="230" as="targetPoint" />
          </mxGeometry>
        </mxCell>
        <mxCell id="MNtpfI66C7HI93_7Ny7_-33" value="" style="endArrow=classic;html=1;rounded=0;exitX=0.896;exitY=1.042;exitDx=0;exitDy=0;exitPerimeter=0;" edge="1" parent="1" source="MNtpfI66C7HI93_7Ny7_-15" target="MNtpfI66C7HI93_7Ny7_-19">
          <mxGeometry width="50" height="50" relative="1" as="geometry">
            <mxPoint x="528" y="300" as="sourcePoint" />
            <mxPoint x="550" y="230" as="targetPoint" />
          </mxGeometry>
        </mxCell>
      </root>
    </mxGraphModel>
  </diagram>
</mxfile>
